<?xml version="1.0" encoding="UTF-8" standalone="no"?>
<!DOCTYPE svg PUBLIC "-//W3C//DTD SVG 1.1//EN"
 "http://www.w3.org/Graphics/SVG/1.1/DTD/svg11.dtd">
<!-- Generated by graphviz version 12.1.2 (20240928.0832)
 -->
<!-- Title: tekuteku Pages: 1 -->
<svg width="1126pt" height="376pt"
 viewBox="0.00 0.00 1125.99 376.40" xmlns="http://www.w3.org/2000/svg" xmlns:xlink="http://www.w3.org/1999/xlink">
<g id="graph0" class="graph" transform="scale(1 1) rotate(0) translate(4 372.4)">
<title>tekuteku</title>
<polygon fill="white" stroke="none" points="-4,4 -4,-372.4 1121.99,-372.4 1121.99,4 -4,4"/>
<!-- public.schema_migrations -->
<g id="node1" class="node">
<title>public.schema_migrations</title>
<polygon fill="#efefef" stroke="none" points="43.2,-197.2 43.2,-232.8 371.15,-232.8 371.15,-197.2 43.2,-197.2"/>
<polygon fill="none" stroke="black" points="43.2,-197.2 43.2,-232.8 371.15,-232.8 371.15,-197.2 43.2,-197.2"/>
<text text-anchor="start" x="50.2" y="-210.6" font-family="Arial Bold" font-size="18.00">public.schema_migrations</text>
<text text-anchor="start" x="239.66" y="-210.6" font-family="Arial" font-size="14.00">    </text>
<text text-anchor="start" x="270.77" y="-210.6" font-family="Arial" font-size="14.00" fill="#666666">[BASE TABLE]</text>
<polygon fill="none" stroke="black" points="43.2,-166.4 43.2,-197.2 371.15,-197.2 371.15,-166.4 43.2,-166.4"/>
<text text-anchor="start" x="50.2" y="-178.6" font-family="Arial" font-size="14.00">version </text>
<text text-anchor="start" x="99.22" y="-178.6" font-family="Arial" font-size="14.00" fill="#666666">[bigint]</text>
<polygon fill="none" stroke="black" points="43.2,-135.6 43.2,-166.4 371.15,-166.4 371.15,-135.6 43.2,-135.6"/>
<text text-anchor="start" x="50.2" y="-147.8" font-family="Arial" font-size="14.00">dirty </text>
<text text-anchor="start" x="80.54" y="-147.8" font-family="Arial" font-size="14.00" fill="#666666">[boolean]</text>
</g>
<!-- public.users -->
<g id="node2" class="node">
<title>public.users</title>
<polygon fill="#efefef" stroke="none" points="475.69,-243.4 475.69,-279 700.66,-279 700.66,-243.4 475.69,-243.4"/>
<polygon fill="none" stroke="black" points="475.69,-243.4 475.69,-279 700.66,-279 700.66,-243.4 475.69,-243.4"/>
<text text-anchor="start" x="482.69" y="-256.8" font-family="Arial Bold" font-size="18.00">public.users</text>
<text text-anchor="start" x="569.17" y="-256.8" font-family="Arial" font-size="14.00">    </text>
<text text-anchor="start" x="600.29" y="-256.8" font-family="Arial" font-size="14.00" fill="#666666">[BASE TABLE]</text>
<polygon fill="none" stroke="black" points="475.69,-212.6 475.69,-243.4 700.66,-243.4 700.66,-212.6 475.69,-212.6"/>
<text text-anchor="start" x="482.69" y="-224.8" font-family="Arial" font-size="14.00">user_id </text>
<text text-anchor="start" x="532.49" y="-224.8" font-family="Arial" font-size="14.00" fill="#666666">[text]</text>
<polygon fill="none" stroke="black" points="475.69,-181.8 475.69,-212.6 700.66,-212.6 700.66,-181.8 475.69,-181.8"/>
<text text-anchor="start" x="482.69" y="-194" font-family="Arial" font-size="14.00">mail </text>
<text text-anchor="start" x="512.24" y="-194" font-family="Arial" font-size="14.00" fill="#666666">[text]</text>
<polygon fill="none" stroke="black" points="475.69,-151 475.69,-181.8 700.66,-181.8 700.66,-151 475.69,-151"/>
<text text-anchor="start" x="482.69" y="-163.2" font-family="Arial" font-size="14.00">name </text>
<text text-anchor="start" x="521.6" y="-163.2" font-family="Arial" font-size="14.00" fill="#666666">[text]</text>
<polygon fill="none" stroke="black" points="475.69,-120.2 475.69,-151 700.66,-151 700.66,-120.2 475.69,-120.2"/>
<text text-anchor="start" x="482.69" y="-132.4" font-family="Arial" font-size="14.00">belong </text>
<text text-anchor="start" x="528.62" y="-132.4" font-family="Arial" font-size="14.00" fill="#666666">[university]</text>
<polygon fill="none" stroke="black" points="475.69,-89.4 475.69,-120.2 700.66,-120.2 700.66,-89.4 475.69,-89.4"/>
<text text-anchor="start" x="482.69" y="-101.6" font-family="Arial" font-size="14.00">hashed_password </text>
<text text-anchor="start" x="600.21" y="-101.6" font-family="Arial" font-size="14.00" fill="#666666">[text]</text>
</g>
<!-- public.messages -->
<g id="node3" class="node">
<title>public.messages</title>
<polygon fill="#efefef" stroke="none" points="805.56,-289.6 805.56,-325.2 1074.79,-325.2 1074.79,-289.6 805.56,-289.6"/>
<polygon fill="none" stroke="black" points="805.56,-289.6 805.56,-325.2 1074.79,-325.2 1074.79,-289.6 805.56,-289.6"/>
<text text-anchor="start" x="819.19" y="-303" font-family="Arial Bold" font-size="18.00">public.messages</text>
<text text-anchor="start" x="936.67" y="-303" font-family="Arial" font-size="14.00">    </text>
<text text-anchor="start" x="967.78" y="-303" font-family="Arial" font-size="14.00" fill="#666666">[BASE TABLE]</text>
<polygon fill="none" stroke="black" points="805.56,-258.8 805.56,-289.6 1074.79,-289.6 1074.79,-258.8 805.56,-258.8"/>
<text text-anchor="start" x="812.56" y="-271" font-family="Arial" font-size="14.00">message_id </text>
<text text-anchor="start" x="891.94" y="-271" font-family="Arial" font-size="14.00" fill="#666666">[text]</text>
<polygon fill="none" stroke="black" points="805.56,-228 805.56,-258.8 1074.79,-258.8 1074.79,-228 805.56,-228"/>
<text text-anchor="start" x="812.56" y="-240.2" font-family="Arial" font-size="14.00">school </text>
<text text-anchor="start" x="856.91" y="-240.2" font-family="Arial" font-size="14.00" fill="#666666">[integer]</text>
<polygon fill="none" stroke="black" points="805.56,-197.2 805.56,-228 1074.79,-228 1074.79,-197.2 805.56,-197.2"/>
<text text-anchor="start" x="812.56" y="-209.4" font-family="Arial" font-size="14.00">x </text>
<text text-anchor="start" x="823.45" y="-209.4" font-family="Arial" font-size="14.00" fill="#666666">[integer]</text>
<polygon fill="none" stroke="black" points="805.56,-166.4 805.56,-197.2 1074.79,-197.2 1074.79,-166.4 805.56,-166.4"/>
<text text-anchor="start" x="812.56" y="-178.6" font-family="Arial" font-size="14.00">y </text>
<text text-anchor="start" x="823.45" y="-178.6" font-family="Arial" font-size="14.00" fill="#666666">[integer]</text>
<polygon fill="none" stroke="black" points="805.56,-135.6 805.56,-166.4 1074.79,-166.4 1074.79,-135.6 805.56,-135.6"/>
<text text-anchor="start" x="812.56" y="-147.8" font-family="Arial" font-size="14.00">message </text>
<text text-anchor="start" x="873.25" y="-147.8" font-family="Arial" font-size="14.00" fill="#666666">[text]</text>
<polygon fill="none" stroke="black" points="805.56,-104.8 805.56,-135.6 1074.79,-135.6 1074.79,-104.8 805.56,-104.8"/>
<text text-anchor="start" x="812.56" y="-117" font-family="Arial" font-size="14.00">created_at </text>
<text text-anchor="start" x="882.6" y="-117" font-family="Arial" font-size="14.00" fill="#666666">[timestamp without time zone]</text>
<polygon fill="none" stroke="black" points="805.56,-74 805.56,-104.8 1074.79,-104.8 1074.79,-74 805.56,-74"/>
<text text-anchor="start" x="812.56" y="-86.2" font-family="Arial" font-size="14.00">float_time </text>
<text text-anchor="start" x="877.14" y="-86.2" font-family="Arial" font-size="14.00" fill="#666666">[real]</text>
<polygon fill="none" stroke="black" points="805.56,-43.2 805.56,-74 1074.79,-74 1074.79,-43.2 805.56,-43.2"/>
<text text-anchor="start" x="812.56" y="-55.4" font-family="Arial" font-size="14.00">likes </text>
<text text-anchor="start" x="844.45" y="-55.4" font-family="Arial" font-size="14.00" fill="#666666">[integer]</text>
</g>
</g>
</svg>
