<?xml version="1.0" encoding="UTF-8" standalone="no"?>
<!DOCTYPE svg PUBLIC "-//W3C//DTD SVG 1.1//EN"
 "http://www.w3.org/Graphics/SVG/1.1/DTD/svg11.dtd">
<!-- Generated by graphviz version 12.1.2 (20240928.0832)
 -->
<!-- Title: tekuteku Pages: 1 -->
<svg width="1126pt" height="284pt"
 viewBox="0.00 0.00 1125.99 284.00" xmlns="http://www.w3.org/2000/svg" xmlns:xlink="http://www.w3.org/1999/xlink">
<g id="graph0" class="graph" transform="scale(1 1) rotate(0) translate(4 280)">
<title>tekuteku</title>
<polygon fill="white" stroke="none" points="-4,4 -4,-280 1121.99,-280 1121.99,4 -4,4"/>
<!-- public.schema_migrations -->
<g id="node1" class="node">
<title>public.schema_migrations</title>
<polygon fill="#efefef" stroke="none" points="43.2,-151 43.2,-186.6 371.15,-186.6 371.15,-151 43.2,-151"/>
<polygon fill="none" stroke="black" points="43.2,-151 43.2,-186.6 371.15,-186.6 371.15,-151 43.2,-151"/>
<text text-anchor="start" x="50.2" y="-164.4" font-family="Arial Bold" font-size="18.00">public.schema_migrations</text>
<text text-anchor="start" x="239.66" y="-164.4" font-family="Arial" font-size="14.00">    </text>
<text text-anchor="start" x="270.77" y="-164.4" font-family="Arial" font-size="14.00" fill="#666666">[BASE TABLE]</text>
<polygon fill="none" stroke="black" points="43.2,-120.2 43.2,-151 371.15,-151 371.15,-120.2 43.2,-120.2"/>
<text text-anchor="start" x="50.2" y="-132.4" font-family="Arial" font-size="14.00">version </text>
<text text-anchor="start" x="99.22" y="-132.4" font-family="Arial" font-size="14.00" fill="#666666">[bigint]</text>
<polygon fill="none" stroke="black" points="43.2,-89.4 43.2,-120.2 371.15,-120.2 371.15,-89.4 43.2,-89.4"/>
<text text-anchor="start" x="50.2" y="-101.6" font-family="Arial" font-size="14.00">dirty </text>
<text text-anchor="start" x="80.54" y="-101.6" font-family="Arial" font-size="14.00" fill="#666666">[boolean]</text>
</g>
<!-- public.users -->
<g id="node2" class="node">
<title>public.users</title>
<polygon fill="#efefef" stroke="none" points="475.69,-197.2 475.69,-232.8 700.66,-232.8 700.66,-197.2 475.69,-197.2"/>
<polygon fill="none" stroke="black" points="475.69,-197.2 475.69,-232.8 700.66,-232.8 700.66,-197.2 475.69,-197.2"/>
<text text-anchor="start" x="482.69" y="-210.6" font-family="Arial Bold" font-size="18.00">public.users</text>
<text text-anchor="start" x="569.17" y="-210.6" font-family="Arial" font-size="14.00">    </text>
<text text-anchor="start" x="600.29" y="-210.6" font-family="Arial" font-size="14.00" fill="#666666">[BASE TABLE]</text>
<polygon fill="none" stroke="black" points="475.69,-166.4 475.69,-197.2 700.66,-197.2 700.66,-166.4 475.69,-166.4"/>
<text text-anchor="start" x="482.69" y="-178.6" font-family="Arial" font-size="14.00">user_id </text>
<text text-anchor="start" x="532.49" y="-178.6" font-family="Arial" font-size="14.00" fill="#666666">[text]</text>
<polygon fill="none" stroke="black" points="475.69,-135.6 475.69,-166.4 700.66,-166.4 700.66,-135.6 475.69,-135.6"/>
<text text-anchor="start" x="482.69" y="-147.8" font-family="Arial" font-size="14.00">mail </text>
<text text-anchor="start" x="512.24" y="-147.8" font-family="Arial" font-size="14.00" fill="#666666">[text]</text>
<polygon fill="none" stroke="black" points="475.69,-104.8 475.69,-135.6 700.66,-135.6 700.66,-104.8 475.69,-104.8"/>
<text text-anchor="start" x="482.69" y="-117" font-family="Arial" font-size="14.00">name </text>
<text text-anchor="start" x="521.6" y="-117" font-family="Arial" font-size="14.00" fill="#666666">[text]</text>
<polygon fill="none" stroke="black" points="475.69,-74 475.69,-104.8 700.66,-104.8 700.66,-74 475.69,-74"/>
<text text-anchor="start" x="482.69" y="-86.2" font-family="Arial" font-size="14.00">belong </text>
<text text-anchor="start" x="528.62" y="-86.2" font-family="Arial" font-size="14.00" fill="#666666">[university]</text>
<polygon fill="none" stroke="black" points="475.69,-43.2 475.69,-74 700.66,-74 700.66,-43.2 475.69,-43.2"/>
<text text-anchor="start" x="482.69" y="-55.4" font-family="Arial" font-size="14.00">hashed_password </text>
<text text-anchor="start" x="600.21" y="-55.4" font-family="Arial" font-size="14.00" fill="#666666">[text]</text>
</g>
<!-- public.messages -->
<g id="node3" class="node">
<title>public.messages</title>
<polygon fill="#efefef" stroke="none" points="805.56,-181.8 805.56,-217.4 1074.79,-217.4 1074.79,-181.8 805.56,-181.8"/>
<polygon fill="none" stroke="black" points="805.56,-181.8 805.56,-217.4 1074.79,-217.4 1074.79,-181.8 805.56,-181.8"/>
<text text-anchor="start" x="819.19" y="-195.2" font-family="Arial Bold" font-size="18.00">public.messages</text>
<text text-anchor="start" x="936.67" y="-195.2" font-family="Arial" font-size="14.00">    </text>
<text text-anchor="start" x="967.78" y="-195.2" font-family="Arial" font-size="14.00" fill="#666666">[BASE TABLE]</text>
<polygon fill="none" stroke="black" points="805.56,-151 805.56,-181.8 1074.79,-181.8 1074.79,-151 805.56,-151"/>
<text text-anchor="start" x="812.56" y="-163.2" font-family="Arial" font-size="14.00">message_id </text>
<text text-anchor="start" x="891.94" y="-163.2" font-family="Arial" font-size="14.00" fill="#666666">[text]</text>
<polygon fill="none" stroke="black" points="805.56,-120.2 805.56,-151 1074.79,-151 1074.79,-120.2 805.56,-120.2"/>
<text text-anchor="start" x="812.56" y="-132.4" font-family="Arial" font-size="14.00">user_id </text>
<text text-anchor="start" x="862.36" y="-132.4" font-family="Arial" font-size="14.00" fill="#666666">[text]</text>
<polygon fill="none" stroke="black" points="805.56,-89.4 805.56,-120.2 1074.79,-120.2 1074.79,-89.4 805.56,-89.4"/>
<text text-anchor="start" x="812.56" y="-101.6" font-family="Arial" font-size="14.00">message </text>
<text text-anchor="start" x="873.25" y="-101.6" font-family="Arial" font-size="14.00" fill="#666666">[text]</text>
<polygon fill="none" stroke="black" points="805.56,-58.6 805.56,-89.4 1074.79,-89.4 1074.79,-58.6 805.56,-58.6"/>
<text text-anchor="start" x="812.56" y="-70.8" font-family="Arial" font-size="14.00">created_at </text>
<text text-anchor="start" x="882.6" y="-70.8" font-family="Arial" font-size="14.00" fill="#666666">[timestamp without time zone]</text>
</g>
</g>
</svg>
